<svg xmlns="http://www.w3.org/2000/svg" width="24" height="24" viewBox="0 0 24 24">
    <path fill="#4A90E2" fill-rule="nonzero" d="M12 5c-3.85 0-7 3.15-7 7s3.15 7 7 7 7-3.15 7-7-3.15-7-7-7zm0 13.382a6.274 6.274 0 0 1-4.056-1.461c.124-.371.35-1.133.35-1.421 0-.412-.823-.412-1.03-.618-.205-.206-.205-.823-.411-1.03-.165-.164-.824-.452-1.112-.555A6.602 6.602 0 0 1 5.618 12c0-.185 0-.35.02-.535.453-.227 1.42-.762 1.42-.906 0-.206-.41-1.235-.41-1.441 0-.206.41-.618.617-.618.206 0 .206.824.411.824.206 0 .824-1.236.824-1.442 0-.185-.453-.658-.576-.782A6.348 6.348 0 0 1 12 5.618c1.112 0 2.141.288 3.047.782-.37.226-1.05.659-1.194.659h-1.235c-.206 0-1.174.885-1.03 1.03.206.205.824-.207 1.03-.207.206 0 .206.618 0 .824-.206.206-1.442.206-1.647.206-.206 0-.618.823-.618 1.03 0 .205.206.41.412.41S12 9.53 12.205 9.53c.207 0 .619.412.824.412.206 0 .824-.617 1.03-.412.206.206-.618.618-.618.824 0 .206.206.206.412.206s.206.412 0 .412h-1.441c-.206 0-.412-.412-.618-.412-.206 0-2.265.823-2.265 1.03v1.235c0 .205.824.823 1.03.823.206 0 .617-.206.823-.206.206 0 .824 1.03.824 1.235 0 .206-.206.412-.206.618 0 .206.206.618.412.824.206.206.617.411.823.206.206-.206 1.236-1.236 1.236-1.442v-.617c0-.206.72-.577.617-.824-.062-.144-.412 0-.617-.206-.206-.206-.206-1.853-.206-1.853s.411 1.236.617 1.442c.206.205.824-.412.824-.618 0-.206-.412-1.03-.412-1.03l.412.412c.206.206.412 0 .618 0 .205 0 .617 1.441.823 1.441.206 0 .206-.617.412-.823.144-.144.556-.185.823-.206A6.388 6.388 0 0 1 12 18.382z"/>
</svg>
